<?xml version="1.0" standalone="no"?><svg xmlns="http://www.w3.org/2000/svg" viewBox="0 0 1440 320"><path fill="#0099ff" fill-opacity="1" d="M0,160L84.7,320L169.4,64L254.1,288L338.8,64L423.5,256L508.2,96L592.9,96L677.6,32L762.4,256L847.1,160L931.8,160L1016.5,128L1101.2,224L1185.9,64L1270.6,320L1355.3,32L1440,160L1440,320L1355.3,320L1270.6,320L1185.9,320L1101.2,320L1016.5,320L931.8,320L847.1,320L762.4,320L677.6,320L592.9,320L508.2,320L423.5,320L338.8,320L254.1,320L169.4,320L84.7,320L0,320Z"></path></svg>